HIERARCHY
ROOT Hips
{
 OFFSET 0.000000 0.000000 0.000000
 CHANNELS 6 Xposition Yposition Zposition Yrotation Xrotation Zrotation
 JOINT Chest
 {
  OFFSET 0.000000 9.585900 0.002600
  CHANNELS 3 Yrotation Xrotation Zrotation
  JOINT Chest2
  {
   OFFSET 0.000000 9.601200 -0.005300
   CHANNELS 3 Yrotation Xrotation Zrotation
   JOINT Chest3
   {
    OFFSET 0.000000 9.561800 0.000000
    CHANNELS 3 Yrotation Xrotation Zrotation
    JOINT Chest4
    {
     OFFSET 0.000000 9.552100 0.000000
     CHANNELS 3 Yrotation Xrotation Zrotation
     JOINT Neck
     {
      OFFSET 0.000000 14.453000 0.000000
      CHANNELS 3 Yrotation Xrotation Zrotation
      JOINT Head
      {
       OFFSET 0.000000 8.936500 -0.011300
       CHANNELS 3 Yrotation Xrotation Zrotation
       End Site
       {
        OFFSET 0.000000 17.073600 -0.006000
       }
      }
     }
     JOINT RightCollar
     {
      OFFSET -2.921100 9.558500 0.000000
      CHANNELS 3 Yrotation Xrotation Zrotation
      JOINT RightShoulder
      {
       OFFSET -13.519700 0.000000 0.000000
       CHANNELS 3 Yrotation Xrotation Zrotation
       JOINT RightElbow
       {
        OFFSET 0.000000 -29.696600 0.000000
        CHANNELS 3 Yrotation Xrotation Zrotation
        JOINT RightWrist
        {
         OFFSET 0.000000 -24.004700 0.000000
         CHANNELS 3 Yrotation Xrotation Zrotation
         End Site
         {
          OFFSET 0.000000 -17.728500 0.000000
         }
        }
       }
      }
     }
     JOINT LeftCollar
     {
      OFFSET 2.921100 9.558500 0.000000
      CHANNELS 3 Yrotation Xrotation Zrotation
      JOINT LeftShoulder
      {
       OFFSET 13.519700 0.000000 0.000000
       CHANNELS 3 Yrotation Xrotation Zrotation
       JOINT LeftElbow
       {
        OFFSET 0.000000 -29.696600 0.000000
        CHANNELS 3 Yrotation Xrotation Zrotation
        JOINT LeftWrist
        {
         OFFSET 0.000000 -24.004700 0.000000
         CHANNELS 3 Yrotation Xrotation Zrotation
         End Site
         {
          OFFSET 0.000000 -17.728500 0.000000
         }
        }
       }
      }
     }
    }
   }
  }
 }
 JOINT RightHip
 {
  OFFSET -7.771700 -0.012900 -0.001300
  CHANNELS 3 Yrotation Xrotation Zrotation
  JOINT RightKnee
  {
   OFFSET 0.000000 -40.869800 0.001200
   CHANNELS 3 Yrotation Xrotation Zrotation
   JOINT RightAnkle
   {
    OFFSET 0.000000 -39.717900 0.002100
    CHANNELS 3 Yrotation Xrotation Zrotation
    JOINT RightToe
    {
     OFFSET 0.000000 -4.965400 11.033500
     CHANNELS 3 Yrotation Xrotation Zrotation
     End Site
     {
      OFFSET 0.000000 -1.423100 5.872300
     }
    }
   }
  }
 }
 JOINT LeftHip
 {
  OFFSET 7.771700 -0.012900 -0.001300
  CHANNELS 3 Yrotation Xrotation Zrotation
  JOINT LeftKnee
  {
   OFFSET 0.000000 -40.869800 0.001200
   CHANNELS 3 Yrotation Xrotation Zrotation
   JOINT LeftAnkle
   {
    OFFSET 0.000000 -39.717900 0.002100
    CHANNELS 3 Yrotation Xrotation Zrotation
    JOINT LeftToe
    {
     OFFSET 0.000000 -4.965400 11.033500
     CHANNELS 3 Yrotation Xrotation Zrotation
     End Site
     {
      OFFSET 0.000000 -1.423100 5.872300
     }
    }
   }
  }
 }
}
MOTION
Frames: 8
Frame Time: 0.008333
-214.558895 57.542796 -70.841676 159.587362 -10.020839 -0.762964 5.533490 8.708514 1.631972 0.326182 0.563132 0.022457 0.562900 0.971374 0.040636 4.880421 8.310102 0.663851 -0.225462 17.556891 -0.963627 -0.093278 -3.188492 -1.701559 1.241265 11.485809 0.700008 -6.732118 -8.342401 -9.215595 154.240197 -81.481740 -132.631704 -2.344637 1.219394 -34.642796 -5.148652 11.354724 -0.326647 12.913812 -12.985236 5.429203 140.250793 -85.698408 -166.703383 -4.194888 9.710249 3.159569 -12.376135 -61.755345 7.272071 -34.789299 71.397998 -36.740006 -4.433397 -6.807054 0.713924 -0.646049 0.920672 -0.282927 -0.899697 -64.951047 17.997413 42.157599 65.783338 35.483291 -18.195303 -9.915322 3.776118 0.087347 -1.168142 -0.000979
-214.571250 57.542911 -70.822578 159.604428 -10.128223 -0.717179 5.659056 8.826896 1.601099 0.344582 0.576786 0.020042 0.594189 0.994035 0.036610 5.064360 8.365628 0.637620 -0.321329 17.508764 -0.885873 -0.295652 -3.279481 -1.526254 1.291829 11.673548 0.777602 -6.760837 -8.444257 -9.366034 154.388779 -82.436881 -132.749206 -2.505051 0.999700 -34.587861 -5.211150 11.459251 -0.361312 12.494208 -13.910095 5.622114 134.549544 -86.388713 -161.100044 -4.053449 9.567396 3.476073 -12.363478 -61.668020 7.224358 -34.747349 71.373150 -36.743996 -4.527671 -6.713904 0.691173 -0.547859 0.856869 -0.256926 -0.826331 -64.848239 17.877253 42.122063 65.746234 35.465052 -18.251624 -9.886055 3.749545 0.126924 -1.144997 0.015480
-214.583842 57.542127 -70.798583 159.593815 -10.195663 -0.649991 5.802330 8.907143 1.552820 0.362302 0.589969 0.017426 0.624113 1.015909 0.032271 5.235226 8.419144 0.609236 -0.407575 17.467648 -0.813044 -0.478864 -3.356944 -1.363010 1.353665 11.834797 0.831731 -6.759917 -8.582207 -9.525457 154.495890 -83.501167 -132.812056 -2.670149 0.784308 -34.515431 -5.274597 11.525860 -0.399219 12.105775 -14.799944 5.861285 125.350573 -87.003968 -152.044599 -3.883013 9.412337 3.853352 -12.232819 -61.620049 7.082010 -34.712383 71.349944 -36.712878 -4.531763 -6.711619 0.680516 -0.535756 0.871768 -0.253565 -0.747436 -64.788010 17.719696 42.191820 65.686439 35.550812 -18.194853 -9.784472 3.736940 0.086364 -1.210841 -0.012359
-214.586776 57.539509 -70.761095 159.504360 -10.193926 -0.625770 6.022033 8.910693 1.557870 0.378843 0.602470 0.014702 0.652003 1.036711 0.027795 5.389518 8.470631 0.579725 -0.482216 17.434932 -0.748670 -0.638047 -3.418280 -1.219283 1.427486 11.972376 0.865241 -6.714227 -8.759349 -9.712010 154.547643 -84.675137 -132.820416 -2.850762 0.568487 -34.427446 -5.339307 11.570074 -0.441857 11.731342 -15.655608 6.135734 111.035411 -87.476439 -137.893897 -3.694659 9.247623 4.253917 -12.155053 -61.626195 7.081449 -34.663903 71.277605 -36.614276 -4.551312 -6.652743 0.591590 -0.467264 0.875470 -0.224106 -0.677731 -64.792969 17.697284 42.184359 65.642479 35.563705 -18.158282 -9.735681 3.714680 0.055890 -1.208334 -0.019377
-214.586937 57.538486 -70.735609 159.483724 -10.250027 -0.580316 6.163672 8.972464 1.537154 0.393863 0.614028 0.011909 0.677418 1.056007 0.023214 5.525571 8.518799 0.549405 -0.544754 17.411650 -0.694080 -0.771727 -3.461818 -1.097560 1.513550 12.093322 0.885526 -6.616294 -8.978931 -9.942677 154.591483 -85.951302 -132.828541 -3.058143 0.352644 -34.335950 -5.411167 11.615374 -0.483974 11.366109 -16.491198 6.431162 91.348542 -87.692623 -118.382235 -3.508005 9.074882 4.663032 -12.092269 -61.583845 7.011996 -34.640643 71.255061 -36.578578 -4.546459 -6.640269 0.554430 -0.429892 0.879436 -0.217529 -0.601045 -64.737395 17.594918 42.176123 65.599538 35.575815 -18.129507 -9.690211 3.692521 0.026679 -1.196199 -0.020688
-214.581272 57.537701 -70.713964 159.476231 -10.323599 -0.540613 6.228978 9.049439 1.514345 0.467443 0.623579 0.006497 0.700502 1.073856 0.018491 5.645276 8.564083 0.518550 -0.596241 17.395902 -0.649239 -0.925488 -3.507442 -0.988471 1.604435 12.204866 0.897506 -6.466195 -9.250869 -10.224780 154.875757 -87.316068 -133.080845 -3.293661 0.148332 -34.259900 -5.502645 11.666480 -0.519599 11.015244 -17.310843 6.738191 70.785399 -87.578101 -97.993972 -3.341413 8.904106 5.079487 -12.046491 -61.521760 6.945185 -34.641845 71.239098 -36.563254 -4.545684 -6.637756 0.518311 -0.401434 0.881859 -0.213304 -0.544132 -64.663766 17.498344 42.170090 65.562330 35.590526 -18.054861 -9.663302 3.681232 -0.022123 -1.193412 -0.038469
-214.574851 57.536459 -70.695591 159.491769 -10.399961 -0.484802 6.268524 9.130947 1.471463 0.537890 0.627105 -0.000889 0.721273 1.090500 0.013586 5.749639 8.607777 0.486888 -0.637662 17.385360 -0.613490 -0.993317 -3.519573 -0.909275 1.694432 12.309759 0.906192 -6.260376 -9.583220 -10.569688 156.543813 -88.756950 -134.723265 -3.550389 -0.033401 -34.218778 -5.618350 11.713324 -0.547372 10.671878 -18.103398 7.062348 54.620365 -87.205938 -81.980312 -3.201377 8.741782 5.485908 -11.983019 -61.461149 6.821302 -34.639877 71.238370 -36.530663 -4.558309 -6.651300 0.496909 -0.373746 0.889242 -0.229828 -0.467333 -64.586722 17.357713 42.151115 65.530104 35.594160 -18.004572 -9.643201 3.674236 -0.058178 -1.188841 -0.054842
-214.567880 57.534289 -70.678958 159.522159 -10.470152 -0.417417 6.439442 9.187197 1.425803 0.460796 0.641015 0.000765 0.739218 1.105701 0.008482 5.836639 8.649406 0.453181 -0.669905 17.378152 -0.585563 -1.039003 -3.524246 -0.854669 1.785786 12.409240 0.915038 -5.998331 -9.975194 -10.986208 -43.309732 -89.728164 65.139984 -3.816490 -0.195919 -34.228795 -5.756579 11.758076 -0.564204 10.317614 -18.864665 7.411247 43.454807 -86.702178 -70.917644 -3.087630 8.585709 5.856862 -11.954548 -61.411845 6.684014 -34.576730 71.264347 -36.446279 -4.525847 -6.667467 0.463000 -0.393115 0.891698 -0.230621 -0.377309 -64.513874 17.187779 42.129901 65.497137 35.589217 -17.942791 -9.629332 3.674634 -0.104372 -1.186215 -0.076938
